<?xml version="1.0" encoding="utf-8"?>
<svg xmlns="http://www.w3.org/2000/svg" xmlns:xlink="http://www.w3.org/1999/xlink" version="1.1" id="Layer_1" x="0px" y="0px" width="36px" height="36px" viewBox="232 232 36 36" enable-background="new 232 232 36 36" xml:space="preserve"><g id="W"><circle id="Green_Back_Circle" fill='#008303' cx="249.355" cy="249.758" r="17.105"/><g><path fill='#FFFFFF' d="M249.95,264.041c-0.37,0-0.676-0.288-0.699-0.655l-0.856-13.749l-6.408,13.996    c-0.114,0.249-0.363,0.408-0.637,0.408h-4.989c-0.366,0-0.67-0.282-0.698-0.648l-1.82-24.531    c-0.015-0.195,0.052-0.386,0.185-0.528c0.132-0.143,0.318-0.224,0.513-0.224h5.26c0.375,0,0.683,0.295,0.699,0.669l0.594,13.513    l6.229-13.771c0.114-0.251,0.363-0.412,0.638-0.412h4.861c0.369,0,0.674,0.286,0.699,0.653l0.918,13.55l5.906-13.779    c0.109-0.257,0.361-0.424,0.643-0.424h5.359c0.24,0,0.461,0.122,0.59,0.324s0.146,0.455,0.045,0.672l-11.406,24.531    c-0.115,0.247-0.361,0.405-0.635,0.405H249.95L249.95,264.041z"/><path fill='#008303' d="M266.35,238.81l-11.406,24.531h-4.993l-1.029-16.533l-7.57,16.533h-4.989l-1.82-24.531h5.26l0.723,16.442    l7.438-16.442h4.861l1.115,16.451l7.051-16.451H266.35 M266.35,237.41h-5.359c-0.561,0-1.066,0.333-1.287,0.848l-4.76,11.106    l-0.721-10.649c-0.051-0.735-0.662-1.305-1.398-1.305h-4.861c-0.55,0-1.049,0.322-1.276,0.823l-5.021,11.1l-0.465-10.584    c-0.033-0.749-0.65-1.338-1.399-1.338h-5.26c-0.39,0-0.761,0.162-1.026,0.447c-0.265,0.286-0.399,0.668-0.37,1.056l1.821,24.532    c0.054,0.73,0.663,1.296,1.396,1.296h4.989c0.548,0,1.045-0.319,1.273-0.816l5.246-11.459l0.683,10.962    c0.045,0.738,0.658,1.313,1.397,1.313h4.993c0.545,0,1.039-0.315,1.27-0.809l11.406-24.533c0.203-0.434,0.168-0.94-0.088-1.343    C267.273,237.654,266.828,237.41,266.35,237.41L266.35,237.41z"/></g></g></svg>
